<svg width="25" height="25" viewBox="0 0 25 25" fill="none" xmlns="http://www.w3.org/2000/svg">
<g clip-path="url(#clip0_3438_82)">
<path d="M3.1945 1.30544C2.88894 3.19433 2.50005 4.41655 1.38894 6.72211C0.472276 8.611 0.277832 9.27766 0.277832 10.6666C0.30561 16.8332 6.88894 19.361 11.2501 14.8888L12.6667 13.4166L13.7223 14.6388C17.0278 18.4443 22.5001 17.7499 24.4445 13.3054C25.3612 11.1666 25.1389 9.33322 23.6389 6.24989C22.9723 4.88878 22.2778 3.02766 22.1112 2.111L21.7501 0.416553L12.5556 0.33322L3.36117 0.277664L3.1945 1.30544ZM21.0556 7.72211C21.1389 8.16655 21.0001 8.33322 20.5834 8.33322C19.8612 8.33322 19.5834 7.861 20.0278 7.33322C20.4723 6.80544 20.9445 6.97211 21.0556 7.72211ZM23.3334 7.361C23.7501 7.861 23.4723 8.33322 22.7501 8.33322C22.4167 8.33322 22.2223 8.13878 22.2223 7.83322C22.2223 6.91655 22.7778 6.66655 23.3334 7.361ZM16.0556 8.55544C16.1389 8.99989 16.0001 9.16655 15.5834 9.16655C14.8612 9.16655 14.5834 8.69433 15.0278 8.16655C15.4723 7.63878 15.9445 7.80544 16.0556 8.55544ZM7.91672 10.0832C8.88894 11.4721 7.9445 13.611 6.38894 13.611C4.08339 13.611 3.27783 10.4721 5.33339 9.58322C6.38894 9.16655 7.41672 9.361 7.91672 10.0832ZM20.5001 10.1666C20.8334 10.5554 21.1112 11.1666 21.1112 11.5554C21.1112 12.5277 19.9445 13.611 18.8889 13.611C17.8612 13.611 16.6667 12.5277 16.6667 11.611C16.6667 10.7777 17.3889 9.74989 18.1667 9.44433C18.9723 9.111 19.7501 9.361 20.5001 10.1666ZM23.8334 10.0832C23.9445 10.6388 23.1389 11.0277 22.7223 10.611C22.3056 10.1943 22.6945 9.38878 23.2501 9.49989C23.5278 9.55544 23.7778 9.80544 23.8334 10.0832ZM14.9445 12.5832C15.0556 13.1388 14.2501 13.5277 13.8334 13.111C13.4167 12.6943 13.8056 11.8888 14.3612 11.9999C14.6389 12.0554 14.8889 12.3054 14.9445 12.5832Z" fill="#7CBC39"/>
<path d="M5.63887 11.2777C5.55554 11.4999 5.61109 11.8332 5.77776 11.9999C6.22221 12.4444 6.94443 12.0555 6.94443 11.3888C6.94443 10.7221 5.88887 10.611 5.63887 11.2777Z" fill="#7CBC39"/>
<path d="M18.2501 11.2222C18.1667 11.4444 18.2779 11.7778 18.5001 11.9722C18.8334 12.25 19.0001 12.2222 19.3612 11.8889C19.5834 11.6389 19.6945 11.3056 19.6112 11.1389C19.3334 10.6944 18.4167 10.75 18.2501 11.2222Z" fill="#7CBC39"/>
<path d="M11.3057 16.7778C9.44454 18.4444 6.44454 18.9722 3.63899 18.1667C3.13899 18.0278 3.02788 18.0556 3.16677 18.3056C3.30565 18.5 3.47232 20.0556 3.58343 21.75L3.7501 24.8611L12.5557 24.9444L21.389 25L21.5001 24.3889C21.5834 24.0278 21.6945 22.4722 21.7501 20.8889C21.889 18.3056 21.8612 18.0278 21.4445 18.1944C19.3057 19.0278 15.9168 18.4167 13.8057 16.8056C13.1112 16.2778 12.5001 15.8333 12.4445 15.8333C12.389 15.8611 11.889 16.2778 11.3057 16.7778Z" fill="#7CBC39"/>
</g>
<defs>
<clipPath id="clip0_3438_82">
<rect width="25" height="25" fill="white"/>
</clipPath>
</defs>
</svg>
